<?xml version="1.0" standalone="no"?>
<!DOCTYPE svg PUBLIC "-//W3C//DTD SVG 20010904//EN"
 "http://www.w3.org/TR/2001/REC-SVG-20010904/DTD/svg10.dtd">
<svg version="1.0" xmlns="http://www.w3.org/2000/svg"
 width="50.000000pt" height="50.000000pt" viewBox="0 0 50.000000 50.000000"
 preserveAspectRatio="xMidYMid meet">

<g transform="translate(0.000000,50.000000) scale(0.100000,-0.100000)"
fill="#000000" stroke="none">
<path d="M0 250 l0 -250 250 0 250 0 0 250 0 250 -250 0 -250 0 0 -250z m270
220 c0 -17 -27 -65 -44 -79 -9 -8 -16 -22 -16 -32 0 -11 -4 -19 -10 -19 -5 0
-10 5 -10 10 0 17 27 65 44 79 9 8 16 22 16 32 0 11 5 19 10 19 6 0 10 -5 10
-10z m50 -54 c0 -7 -9 -25 -20 -39 -11 -14 -20 -30 -20 -36 0 -6 -4 -11 -10
-11 -16 0 -11 25 10 53 11 14 20 30 20 36 0 6 5 11 10 11 6 0 10 -6 10 -14z
m60 -121 c0 -8 8 -15 19 -15 50 0 51 -75 0 -111 -16 -11 -29 -25 -29 -31 0 -6
-7 -20 -17 -30 -15 -17 -14 -18 25 -18 50 0 55 -18 16 -49 -24 -19 -40 -21
-154 -21 -114 0 -130 2 -154 21 -39 31 -34 49 16 49 l41 0 -19 21 c-15 17 -20
40 -22 110 l-4 89 141 0 c119 0 141 -2 141 -15z"/>
<path d="M120 215 c0 -67 3 -79 25 -100 21 -22 33 -25 95 -25 62 0 74 3 95 25
22 21 25 33 25 100 l0 75 -120 0 -120 0 0 -75z"/>
<path d="M380 220 c0 -22 4 -40 8 -40 17 0 32 25 32 52 0 21 -5 28 -20 28 -17
0 -20 -7 -20 -40z"/>
<path d="M90 55 c18 -22 267 -22 296 0 17 13 1 14 -145 15 -144 0 -162 -2
-151 -15z"/>
</g>
</svg>
